<svg xmlns="http://www.w3.org/2000/svg" viewBox="0 0 512 512" role="img" aria-label="StudyBuddy logo">
  <defs>
    <linearGradient id="g1" x1="88" y1="72" x2="426" y2="432" gradientUnits="userSpaceOnUse">
      <stop stop-color="#7C3CFF"/>
      <stop offset=".48" stop-color="#246BFF"/>
      <stop offset="1" stop-color="#22D3EE"/>
    </linearGradient>
    <linearGradient id="g2" x1="142" y1="277" x2="376" y2="404" gradientUnits="userSpaceOnUse">
      <stop stop-color="#F8FBFF"/>
      <stop offset="1" stop-color="#BFD7FF"/>
    </linearGradient>
    <filter id="s" x="-25%" y="-25%" width="150%" height="150%">
      <feDropShadow dx="0" dy="20" stdDeviation="18" flood-color="#000" flood-opacity=".35"/>
    </filter>
  </defs>
  <rect width="512" height="512" rx="122" fill="#050816"/>
  <circle cx="394" cy="116" r="58" fill="#22D3EE" opacity=".12"/>
  <circle cx="116" cy="386" r="72" fill="#7C3CFF" opacity=".16"/>
  <path d="M132 338c54-42 104-52 150-28 34-20 72-23 114-10v94c-43-15-82-12-116 10-49-26-98-18-148 25v-91z" fill="url(#g2)" filter="url(#s)"/>
  <path d="M160 160h190c31 0 56 25 56 56v134c-47-17-90-14-128 10-40-24-84-28-132-12V174c0-8 6-14 14-14z" fill="url(#g1)" filter="url(#s)"/>
  <path d="M190 222h132M190 263h158M190 304h104" stroke="#F8FBFF" stroke-width="20" stroke-linecap="round" opacity=".92"/>
  <path d="M356 124l18 38 42 6-30 30 7 42-37-20-37 20 7-42-30-30 42-6 18-38z" fill="#22D3EE"/>
</svg>
